<mxfile host="app.diagrams.net" agent="Mozilla/5.0 (Windows NT 10.0; Win64; x64) AppleWebKit/537.36 (KHTML, like Gecko) Chrome/131.0.0.0 Safari/537.36 Edg/131.0.0.0" version="26.0.4">
  <diagram name="Page-1" id="Ul5-LBto5dhorNfV26UV">
    <mxGraphModel dx="1042" dy="565" grid="1" gridSize="10" guides="1" tooltips="1" connect="1" arrows="1" fold="1" page="1" pageScale="1" pageWidth="827" pageHeight="1169" math="0" shadow="0">
      <root>
        <mxCell id="0" />
        <mxCell id="1" parent="0" />
        <mxCell id="Gq8MpkualemQJBXAmug--2" value="User Registration" style="ellipse;whiteSpace=wrap;html=1;fillColor=#f8cecc;strokeColor=#b85450;" parent="1" vertex="1">
          <mxGeometry x="380" y="140" width="120" height="80" as="geometry" />
        </mxCell>
        <mxCell id="Gq8MpkualemQJBXAmug--46" style="edgeStyle=orthogonalEdgeStyle;rounded=0;orthogonalLoop=1;jettySize=auto;html=1;exitX=0.926;exitY=0.274;exitDx=0;exitDy=0;exitPerimeter=0;" parent="1" source="Gq8MpkualemQJBXAmug--3" edge="1">
          <mxGeometry relative="1" as="geometry">
            <mxPoint x="680" y="480" as="targetPoint" />
            <mxPoint x="473.99994806091945" y="330.0026315789474" as="sourcePoint" />
            <Array as="points">
              <mxPoint x="680" y="332" />
            </Array>
          </mxGeometry>
        </mxCell>
        <mxCell id="Gq8MpkualemQJBXAmug--47" value="Logged in" style="edgeLabel;html=1;align=center;verticalAlign=middle;resizable=0;points=[];" parent="Gq8MpkualemQJBXAmug--46" vertex="1" connectable="0">
          <mxGeometry x="-0.5419" y="3" relative="1" as="geometry">
            <mxPoint x="12" y="-9" as="offset" />
          </mxGeometry>
        </mxCell>
        <mxCell id="Gq8MpkualemQJBXAmug--3" value="User Authentication" style="ellipse;whiteSpace=wrap;html=1;fillColor=#fff2cc;strokeColor=#d6b656;" parent="1" vertex="1">
          <mxGeometry x="354" y="310" width="120" height="80" as="geometry" />
        </mxCell>
        <mxCell id="Gq8MpkualemQJBXAmug--36" style="edgeStyle=orthogonalEdgeStyle;rounded=0;orthogonalLoop=1;jettySize=auto;html=1;entryX=1;entryY=0.5;entryDx=0;entryDy=0;exitX=1.015;exitY=0.622;exitDx=0;exitDy=0;exitPerimeter=0;" parent="1" source="Gq8MpkualemQJBXAmug--4" target="Gq8MpkualemQJBXAmug--6" edge="1">
          <mxGeometry relative="1" as="geometry">
            <mxPoint x="480" y="540" as="sourcePoint" />
            <mxPoint x="750" y="250" as="targetPoint" />
          </mxGeometry>
        </mxCell>
        <mxCell id="Gq8MpkualemQJBXAmug--37" value="get role assigned" style="edgeLabel;html=1;align=center;verticalAlign=middle;resizable=0;points=[];" parent="Gq8MpkualemQJBXAmug--36" vertex="1" connectable="0">
          <mxGeometry x="-0.5166" y="-4" relative="1" as="geometry">
            <mxPoint y="-14" as="offset" />
          </mxGeometry>
        </mxCell>
        <mxCell id="Gq8MpkualemQJBXAmug--38" style="edgeStyle=orthogonalEdgeStyle;rounded=0;orthogonalLoop=1;jettySize=auto;html=1;entryX=0.311;entryY=1.03;entryDx=0;entryDy=0;exitX=1;exitY=0;exitDx=0;exitDy=0;entryPerimeter=0;" parent="1" source="Gq8MpkualemQJBXAmug--57" target="Gq8MpkualemQJBXAmug--7" edge="1">
          <mxGeometry relative="1" as="geometry">
            <mxPoint x="480" y="500" as="sourcePoint" />
            <mxPoint x="610" y="480" as="targetPoint" />
            <Array as="points">
              <mxPoint x="474" y="560" />
              <mxPoint x="657" y="560" />
              <mxPoint x="657" y="521" />
              <mxPoint x="657" y="521" />
            </Array>
          </mxGeometry>
        </mxCell>
        <mxCell id="Gq8MpkualemQJBXAmug--39" value="gets role assigned" style="edgeLabel;html=1;align=center;verticalAlign=middle;resizable=0;points=[];" parent="Gq8MpkualemQJBXAmug--38" vertex="1" connectable="0">
          <mxGeometry x="-0.0239" y="2" relative="1" as="geometry">
            <mxPoint x="18" y="-8" as="offset" />
          </mxGeometry>
        </mxCell>
        <mxCell id="Gq8MpkualemQJBXAmug--4" value="Role Assignment" style="ellipse;whiteSpace=wrap;html=1;fillColor=#dae8fc;strokeColor=#6c8ebf;" parent="1" vertex="1">
          <mxGeometry x="390" y="590" width="120" height="80" as="geometry" />
        </mxCell>
        <mxCell id="Gq8MpkualemQJBXAmug--14" style="edgeStyle=orthogonalEdgeStyle;rounded=0;orthogonalLoop=1;jettySize=auto;html=1;entryX=0;entryY=0.5;entryDx=0;entryDy=0;" parent="1" source="Gq8MpkualemQJBXAmug--5" target="Gq8MpkualemQJBXAmug--4" edge="1">
          <mxGeometry relative="1" as="geometry">
            <Array as="points">
              <mxPoint x="100" y="230" />
              <mxPoint x="100" y="630" />
              <mxPoint x="370" y="630" />
            </Array>
          </mxGeometry>
        </mxCell>
        <mxCell id="Gq8MpkualemQJBXAmug--15" value="Assigns specific role" style="edgeLabel;html=1;align=center;verticalAlign=middle;resizable=0;points=[];" parent="Gq8MpkualemQJBXAmug--14" vertex="1" connectable="0">
          <mxGeometry x="0.4388" y="3" relative="1" as="geometry">
            <mxPoint y="-7" as="offset" />
          </mxGeometry>
        </mxCell>
        <mxCell id="Gq8MpkualemQJBXAmug--5" value="Admin" style="rounded=0;whiteSpace=wrap;html=1;fillColor=#e1d5e7;strokeColor=#9673a6;" parent="1" vertex="1">
          <mxGeometry x="120" y="210" width="120" height="40" as="geometry" />
        </mxCell>
        <mxCell id="Gq8MpkualemQJBXAmug--31" style="edgeStyle=orthogonalEdgeStyle;rounded=0;orthogonalLoop=1;jettySize=auto;html=1;" parent="1" source="Gq8MpkualemQJBXAmug--6" target="Gq8MpkualemQJBXAmug--2" edge="1">
          <mxGeometry relative="1" as="geometry">
            <Array as="points">
              <mxPoint x="700" y="60" />
              <mxPoint x="470" y="60" />
            </Array>
          </mxGeometry>
        </mxCell>
        <mxCell id="Gq8MpkualemQJBXAmug--33" value="Register as new user" style="edgeLabel;html=1;align=center;verticalAlign=middle;resizable=0;points=[];" parent="Gq8MpkualemQJBXAmug--31" vertex="1" connectable="0">
          <mxGeometry x="0.1276" y="-2" relative="1" as="geometry">
            <mxPoint x="-58" y="-8" as="offset" />
          </mxGeometry>
        </mxCell>
        <mxCell id="Gq8MpkualemQJBXAmug--48" style="edgeStyle=orthogonalEdgeStyle;rounded=0;orthogonalLoop=1;jettySize=auto;html=1;endArrow=none;endFill=0;startArrow=classic;startFill=1;" parent="1" edge="1">
          <mxGeometry relative="1" as="geometry">
            <mxPoint x="640" y="230.0026315789474" as="sourcePoint" />
            <mxPoint x="459.9473684210527" y="324.22634607620563" as="targetPoint" />
            <Array as="points">
              <mxPoint x="460" y="229.95" />
            </Array>
          </mxGeometry>
        </mxCell>
        <mxCell id="Gq8MpkualemQJBXAmug--49" value="Logged in" style="edgeLabel;html=1;align=center;verticalAlign=middle;resizable=0;points=[];" parent="Gq8MpkualemQJBXAmug--48" vertex="1" connectable="0">
          <mxGeometry x="-0.4692" y="-2" relative="1" as="geometry">
            <mxPoint y="-8" as="offset" />
          </mxGeometry>
        </mxCell>
        <mxCell id="Gq8MpkualemQJBXAmug--6" value="Customer" style="rounded=0;whiteSpace=wrap;html=1;fillColor=#d5e8d4;strokeColor=#82b366;" parent="1" vertex="1">
          <mxGeometry x="640" y="210" width="120" height="40" as="geometry" />
        </mxCell>
        <mxCell id="Gq8MpkualemQJBXAmug--7" value="Suppiler" style="rounded=0;whiteSpace=wrap;html=1;fillColor=#dae8fc;strokeColor=#6c8ebf;" parent="1" vertex="1">
          <mxGeometry x="620" y="470" width="120" height="40" as="geometry" />
        </mxCell>
        <mxCell id="Gq8MpkualemQJBXAmug--8" style="edgeStyle=orthogonalEdgeStyle;rounded=0;orthogonalLoop=1;jettySize=auto;html=1;entryX=0.612;entryY=0.022;entryDx=0;entryDy=0;entryPerimeter=0;exitX=0.583;exitY=0.005;exitDx=0;exitDy=0;exitPerimeter=0;" parent="1" source="Gq8MpkualemQJBXAmug--5" target="Gq8MpkualemQJBXAmug--2" edge="1">
          <mxGeometry relative="1" as="geometry">
            <mxPoint x="200" y="200" as="sourcePoint" />
            <mxPoint x="454.7600000000001" y="134.40000000000003" as="targetPoint" />
            <Array as="points">
              <mxPoint x="200" y="60" />
              <mxPoint x="453" y="60" />
            </Array>
          </mxGeometry>
        </mxCell>
        <mxCell id="Gq8MpkualemQJBXAmug--9" value="Register as new user" style="edgeLabel;html=1;align=center;verticalAlign=middle;resizable=0;points=[];rotation=0;" parent="Gq8MpkualemQJBXAmug--8" vertex="1" connectable="0">
          <mxGeometry x="-0.0306" y="-2" relative="1" as="geometry">
            <mxPoint x="90" y="-12" as="offset" />
          </mxGeometry>
        </mxCell>
        <mxCell id="Gq8MpkualemQJBXAmug--10" style="edgeStyle=orthogonalEdgeStyle;rounded=0;orthogonalLoop=1;jettySize=auto;html=1;entryX=0.75;entryY=0;entryDx=0;entryDy=0;exitX=0.5;exitY=0;exitDx=0;exitDy=0;startArrow=classic;startFill=1;endArrow=none;endFill=0;" parent="1" source="Gq8MpkualemQJBXAmug--2" target="Gq8MpkualemQJBXAmug--5" edge="1">
          <mxGeometry relative="1" as="geometry">
            <mxPoint x="370" y="130" as="sourcePoint" />
            <mxPoint x="220.79999999999995" y="160.79999999999995" as="targetPoint" />
          </mxGeometry>
        </mxCell>
        <mxCell id="Gq8MpkualemQJBXAmug--12" value="Get registered" style="edgeLabel;html=1;align=center;verticalAlign=middle;resizable=0;points=[];" parent="Gq8MpkualemQJBXAmug--10" vertex="1" connectable="0">
          <mxGeometry x="-0.1273" y="2" relative="1" as="geometry">
            <mxPoint y="-12" as="offset" />
          </mxGeometry>
        </mxCell>
        <mxCell id="Gq8MpkualemQJBXAmug--17" value="" style="shape=link;html=1;rounded=0;width=35.45454545454545;" parent="1" edge="1">
          <mxGeometry width="100" relative="1" as="geometry">
            <mxPoint x="200" y="374.90000000000003" as="sourcePoint" />
            <mxPoint x="300" y="374.90000000000003" as="targetPoint" />
          </mxGeometry>
        </mxCell>
        <mxCell id="Gq8MpkualemQJBXAmug--25" style="edgeStyle=orthogonalEdgeStyle;rounded=0;orthogonalLoop=1;jettySize=auto;html=1;exitX=0.482;exitY=1.055;exitDx=0;exitDy=0;exitPerimeter=0;entryX=0;entryY=1;entryDx=0;entryDy=0;" parent="1" source="Gq8MpkualemQJBXAmug--19" target="Gq8MpkualemQJBXAmug--3" edge="1">
          <mxGeometry relative="1" as="geometry">
            <mxPoint x="250" y="400" as="sourcePoint" />
            <Array as="points">
              <mxPoint x="249" y="420" />
              <mxPoint x="372" y="420" />
              <mxPoint x="372" y="390" />
              <mxPoint x="372" y="390" />
            </Array>
            <mxPoint x="414" y="390" as="targetPoint" />
          </mxGeometry>
        </mxCell>
        <mxCell id="Gq8MpkualemQJBXAmug--28" value="gives user data" style="edgeLabel;html=1;align=center;verticalAlign=middle;resizable=0;points=[];" parent="Gq8MpkualemQJBXAmug--25" vertex="1" connectable="0">
          <mxGeometry x="-0.0784" y="-1" relative="1" as="geometry">
            <mxPoint y="-11" as="offset" />
          </mxGeometry>
        </mxCell>
        <mxCell id="Gq8MpkualemQJBXAmug--19" value="User" style="text;html=1;align=center;verticalAlign=middle;resizable=0;points=[];autosize=1;strokeColor=none;fillColor=none;" parent="1" vertex="1">
          <mxGeometry x="225" y="360" width="50" height="30" as="geometry" />
        </mxCell>
        <mxCell id="Gq8MpkualemQJBXAmug--21" style="edgeStyle=orthogonalEdgeStyle;rounded=0;orthogonalLoop=1;jettySize=auto;html=1;entryX=0.487;entryY=-0.03;entryDx=0;entryDy=0;entryPerimeter=0;" parent="1" edge="1">
          <mxGeometry relative="1" as="geometry">
            <mxPoint x="380" y="180.9" as="sourcePoint" />
            <mxPoint x="249.35000000000002" y="358" as="targetPoint" />
          </mxGeometry>
        </mxCell>
        <mxCell id="Gq8MpkualemQJBXAmug--22" value="Stores User Data" style="edgeLabel;html=1;align=center;verticalAlign=middle;resizable=0;points=[];" parent="Gq8MpkualemQJBXAmug--21" vertex="1" connectable="0">
          <mxGeometry x="-0.3909" y="1" relative="1" as="geometry">
            <mxPoint x="24" y="-1" as="offset" />
          </mxGeometry>
        </mxCell>
        <mxCell id="Gq8MpkualemQJBXAmug--23" style="edgeStyle=orthogonalEdgeStyle;rounded=0;orthogonalLoop=1;jettySize=auto;html=1;entryX=0.967;entryY=-0.03;entryDx=0;entryDy=0;entryPerimeter=0;exitX=0.5;exitY=0;exitDx=0;exitDy=0;" parent="1" source="Gq8MpkualemQJBXAmug--3" edge="1">
          <mxGeometry relative="1" as="geometry">
            <mxPoint x="356.65" y="349.9999999999999" as="sourcePoint" />
            <mxPoint x="259.9999999999999" y="357.0999999999999" as="targetPoint" />
            <Array as="points">
              <mxPoint x="430" y="290" />
              <mxPoint x="260" y="290" />
            </Array>
          </mxGeometry>
        </mxCell>
        <mxCell id="Gq8MpkualemQJBXAmug--24" value="Stores user Credentials" style="edgeLabel;html=1;align=center;verticalAlign=middle;resizable=0;points=[];" parent="Gq8MpkualemQJBXAmug--23" vertex="1" connectable="0">
          <mxGeometry x="-0.0729" y="3" relative="1" as="geometry">
            <mxPoint y="-13" as="offset" />
          </mxGeometry>
        </mxCell>
        <mxCell id="Gq8MpkualemQJBXAmug--29" style="edgeStyle=orthogonalEdgeStyle;rounded=0;orthogonalLoop=1;jettySize=auto;html=1;entryX=-0.035;entryY=1.121;entryDx=0;entryDy=0;entryPerimeter=0;" parent="1" source="Gq8MpkualemQJBXAmug--4" target="Gq8MpkualemQJBXAmug--19" edge="1">
          <mxGeometry relative="1" as="geometry">
            <Array as="points">
              <mxPoint x="430" y="540" />
              <mxPoint x="223" y="540" />
            </Array>
            <mxPoint x="430" y="560" as="sourcePoint" />
          </mxGeometry>
        </mxCell>
        <mxCell id="Gq8MpkualemQJBXAmug--30" value="Stores assigned role" style="edgeLabel;html=1;align=center;verticalAlign=middle;resizable=0;points=[];" parent="Gq8MpkualemQJBXAmug--29" vertex="1" connectable="0">
          <mxGeometry x="-0.0997" y="2" relative="1" as="geometry">
            <mxPoint x="30" y="8" as="offset" />
          </mxGeometry>
        </mxCell>
        <mxCell id="Gq8MpkualemQJBXAmug--34" style="edgeStyle=orthogonalEdgeStyle;rounded=0;orthogonalLoop=1;jettySize=auto;html=1;entryX=0.967;entryY=0.37;entryDx=0;entryDy=0;entryPerimeter=0;" parent="1" source="Gq8MpkualemQJBXAmug--6" target="Gq8MpkualemQJBXAmug--2" edge="1">
          <mxGeometry relative="1" as="geometry">
            <Array as="points">
              <mxPoint x="670" y="90" />
              <mxPoint x="496" y="90" />
            </Array>
          </mxGeometry>
        </mxCell>
        <mxCell id="Gq8MpkualemQJBXAmug--35" value="Gets registred" style="edgeLabel;html=1;align=center;verticalAlign=middle;resizable=0;points=[];" parent="Gq8MpkualemQJBXAmug--34" vertex="1" connectable="0">
          <mxGeometry x="0.1905" y="1" relative="1" as="geometry">
            <mxPoint x="2" y="-11" as="offset" />
          </mxGeometry>
        </mxCell>
        <mxCell id="Gq8MpkualemQJBXAmug--43" style="edgeStyle=orthogonalEdgeStyle;rounded=0;orthogonalLoop=1;jettySize=auto;html=1;entryX=0.955;entryY=0.744;entryDx=0;entryDy=0;entryPerimeter=0;" parent="1" source="Gq8MpkualemQJBXAmug--7" target="Gq8MpkualemQJBXAmug--3" edge="1">
          <mxGeometry relative="1" as="geometry">
            <mxPoint x="718.24" y="467.68" as="sourcePoint" />
            <mxPoint x="559.9999999999998" y="340.00000000000006" as="targetPoint" />
            <Array as="points">
              <mxPoint x="660" y="370" />
            </Array>
          </mxGeometry>
        </mxCell>
        <mxCell id="Gq8MpkualemQJBXAmug--45" value="Get Login Credentials" style="edgeLabel;html=1;align=center;verticalAlign=middle;resizable=0;points=[];" parent="Gq8MpkualemQJBXAmug--43" vertex="1" connectable="0">
          <mxGeometry x="0.5303" y="1" relative="1" as="geometry">
            <mxPoint y="-11" as="offset" />
          </mxGeometry>
        </mxCell>
        <mxCell id="Gq8MpkualemQJBXAmug--51" style="edgeStyle=orthogonalEdgeStyle;rounded=0;orthogonalLoop=1;jettySize=auto;html=1;entryX=0.967;entryY=0.25;entryDx=0;entryDy=0;entryPerimeter=0;" parent="1" source="Gq8MpkualemQJBXAmug--6" target="Gq8MpkualemQJBXAmug--3" edge="1">
          <mxGeometry relative="1" as="geometry">
            <Array as="points">
              <mxPoint x="700" y="260" />
              <mxPoint x="470" y="260" />
            </Array>
          </mxGeometry>
        </mxCell>
        <mxCell id="Gq8MpkualemQJBXAmug--52" value="Get Login Credentials" style="edgeLabel;html=1;align=center;verticalAlign=middle;resizable=0;points=[];" parent="Gq8MpkualemQJBXAmug--51" vertex="1" connectable="0">
          <mxGeometry x="-0.1254" relative="1" as="geometry">
            <mxPoint x="-4" y="10" as="offset" />
          </mxGeometry>
        </mxCell>
        <mxCell id="Gq8MpkualemQJBXAmug--55" value="1.1" style="text;html=1;align=center;verticalAlign=middle;whiteSpace=wrap;rounded=0;" parent="1" vertex="1">
          <mxGeometry x="410" y="140" width="60" height="30" as="geometry" />
        </mxCell>
        <mxCell id="Gq8MpkualemQJBXAmug--56" value="1.2" style="text;html=1;align=center;verticalAlign=middle;whiteSpace=wrap;rounded=0;" parent="1" vertex="1">
          <mxGeometry x="380" y="310" width="60" height="30" as="geometry" />
        </mxCell>
        <mxCell id="Gq8MpkualemQJBXAmug--57" value="1.4" style="text;html=1;align=center;verticalAlign=middle;whiteSpace=wrap;rounded=0;" parent="1" vertex="1">
          <mxGeometry x="414" y="590" width="60" height="30" as="geometry" />
        </mxCell>
        <mxCell id="n9-2xeiogiJ65iEGteET-1" value="Verification" style="ellipse;whiteSpace=wrap;html=1;fillColor=#e1d5e7;strokeColor=#9673a6;" parent="1" vertex="1">
          <mxGeometry x="370" y="450" width="120" height="80" as="geometry" />
        </mxCell>
        <mxCell id="n9-2xeiogiJ65iEGteET-3" style="edgeStyle=orthogonalEdgeStyle;rounded=0;orthogonalLoop=1;jettySize=auto;html=1;entryX=0.371;entryY=0.04;entryDx=0;entryDy=0;entryPerimeter=0;" parent="1" source="Gq8MpkualemQJBXAmug--3" target="n9-2xeiogiJ65iEGteET-1" edge="1">
          <mxGeometry relative="1" as="geometry" />
        </mxCell>
        <mxCell id="n9-2xeiogiJ65iEGteET-4" style="edgeStyle=orthogonalEdgeStyle;rounded=0;orthogonalLoop=1;jettySize=auto;html=1;entryX=0.272;entryY=1.114;entryDx=0;entryDy=0;entryPerimeter=0;" parent="1" source="n9-2xeiogiJ65iEGteET-1" target="Gq8MpkualemQJBXAmug--19" edge="1">
          <mxGeometry relative="1" as="geometry" />
        </mxCell>
        <mxCell id="n9-2xeiogiJ65iEGteET-5" value="1.3" style="text;html=1;align=center;verticalAlign=middle;whiteSpace=wrap;rounded=0;" parent="1" vertex="1">
          <mxGeometry x="400" y="450" width="60" height="30" as="geometry" />
        </mxCell>
        <mxCell id="n9-2xeiogiJ65iEGteET-6" value="Stores User Verification Data" style="text;html=1;align=center;verticalAlign=middle;whiteSpace=wrap;rounded=0;" parent="1" vertex="1">
          <mxGeometry x="260" y="460" width="90" height="30" as="geometry" />
        </mxCell>
      </root>
    </mxGraphModel>
  </diagram>
</mxfile>
